<svg preserveAspectRatio="none" width="100%" height="100%" overflow="visible" style="display: block;" viewBox="0 0 188.214 239.25" fill="none" xmlns="http://www.w3.org/2000/svg">
<g id="Group 1171278832">
<g id="Subtract">
<mask id="path-1-outside-1_0_25" maskUnits="userSpaceOnUse" x="-0.25" y="-0.25" width="189" height="240" fill="black">
<rect fill="white" x="-0.25" y="-0.25" width="189" height="240"/>
<path d="M119.625 0.75C144.576 0.75 167.73 8.43856 186.851 21.5732C154.343 42.0968 132.75 78.3389 132.75 119.625C132.75 160.911 154.343 197.152 186.851 217.676C167.73 230.811 144.576 238.5 119.625 238.5C53.9722 238.5 0.750004 185.278 0.75 119.625C0.75 53.9722 53.9722 0.75 119.625 0.75Z"/>
</mask>
<path d="M119.625 0.75C144.576 0.75 167.73 8.43856 186.851 21.5732C154.343 42.0968 132.75 78.3389 132.75 119.625C132.75 160.911 154.343 197.152 186.851 217.676C167.73 230.811 144.576 238.5 119.625 238.5C53.9722 238.5 0.750004 185.278 0.75 119.625C0.75 53.9722 53.9722 0.75 119.625 0.75Z" fill="var(--fill-0, white)"/>
<path d="M119.625 0.75V0V0V0.75ZM186.851 21.5732L187.251 22.2074L188.214 21.5997L187.275 20.955L186.851 21.5732ZM132.75 119.625H132V119.625H132.75ZM186.851 217.676L187.275 218.294L188.214 217.649L187.251 217.042L186.851 217.676ZM119.625 238.5V239.25V239.25V238.5ZM0.75 119.625H0V119.625H0.75ZM119.625 0.75V1.5C144.419 1.5 167.426 9.13984 186.426 22.1914L186.851 21.5732L187.275 20.955C168.033 7.73728 144.732 3.57628e-07 119.625 0V0.75ZM186.851 21.5732L186.45 20.9391C153.734 41.5942 132 78.0708 132 119.625H132.75H133.5C133.5 78.6069 154.952 42.5994 187.251 22.2074L186.851 21.5732ZM132.75 119.625H132C132 161.179 153.734 197.655 186.45 218.31L186.851 217.676L187.251 217.042C154.952 196.65 133.5 160.643 133.5 119.625H132.75ZM186.851 217.676L186.426 217.058C167.426 230.109 144.419 237.75 119.625 237.75V238.5V239.25C144.732 239.25 168.033 231.512 187.275 218.294L186.851 217.676ZM119.625 238.5V237.75C54.3864 237.75 1.5 184.864 1.5 119.625H0.75H0C3.75509e-06 185.692 53.5579 239.25 119.625 239.25V238.5ZM0.75 119.625H1.5C1.5 54.3864 54.3864 1.5 119.625 1.5V0.75V0C53.5579 0 0 53.5579 0 119.625H0.75Z" fill="var(--stroke-0, black)" mask="url(#path-1-outside-1_0_25)"/>
</g>
</g>
</svg>
